<svg xmlns="http://www.w3.org/2000/svg" viewBox="0 0 494 113.39"><defs><style>.cls-1{fill:#3c3c3b;}.cls-2{fill:#35e223;}</style></defs><title>Asset 1</title><g id="Layer_2" data-name="Layer 2"><g id="Layer_1-2" data-name="Layer 1"><path class="cls-1" d="M194.35,25.94h26c10.39,0,19.08,1,26,4.59,7.61,4,14.13,11.47,14.13,23.31,0,10.75-5.19,18.48-12.56,22.83-6.76,4-15.46,5.43-28.26,5.43h-6v31.28h-19.2Zm26.21,40.58c7.61,0,12-.36,15.22-2.17a10.27,10.27,0,0,0,5.43-9.54c0-5-2.17-8.45-6.16-10.27-3.5-1.57-8.21-1.81-15-1.81h-6.52V66.53Z"/><path class="cls-1" d="M273.82,25.94h26c10.39,0,19.08,1,26,4.59,7.61,4,14.13,11.47,14.13,23.31,0,10.75-5.19,18.48-12.56,22.83-6.76,4-15.46,5.43-28.26,5.43h-6v31.28h-19.2ZM300,66.53c7.61,0,12-.36,15.22-2.17a10.27,10.27,0,0,0,5.44-9.54c0-5-2.18-8.45-6.16-10.27-3.5-1.57-8.21-1.81-15-1.81H293V66.53Z"/><path class="cls-1" d="M352.42,25.94h54V42.73H371.62V59.88h30V75.83h-30V96.6h36.11v16.79H352.42Z"/><path class="cls-1" d="M422,25.94h27.42c10.39,0,20.17,1.45,27.18,5.8,6.4,4,10.51,10.51,10.51,20.53,0,11.23-6.16,20.41-17.76,24.16l24.64,37H471.9l-22.1-34.54h-8.58v34.54H422Zm28.87,38.53c5.19,0,9.18-.6,12.08-2.05,3.26-1.69,5-4.59,5-8.82s-1.45-6.76-5-8.58c-3-1.57-7.73-2.29-14.37-2.29h-7.37V64.47Z"/><polygon class="cls-1" points="57.03 25.94 57.03 58.63 19.2 58.63 19.2 25.94 0 25.94 0 113.39 19.2 113.39 19.2 77.83 57.03 77.83 57.03 113.39 76.24 113.39 76.24 25.94 57.03 25.94"/><path class="cls-1" d="M89.64,45.05C89.64,19.57,109.33,0,135.3,0S181,19.57,181,45.05,161.26,90.1,135.3,90.1,89.64,70.54,89.64,45.05Zm72.11,0c0-15.46-11.35-27.66-26.45-27.66s-26.45,12.2-26.45,27.66S120.2,72.71,135.3,72.71,161.75,60.51,161.75,45.05Z"/><path class="cls-2" d="M123.34,113.14a15.3,15.3,0,0,1,26,0h12.25c-3.58-10.3-13.27-17.4-25.23-17.4s-21.65,7.1-25.23,17.4Z"/></g></g></svg>