<svg xmlns="http://www.w3.org/2000/svg" viewBox="0 0 605 206.54"><defs><style>.cls-1{fill:#3c3c3b;}.cls-2{fill:#35e223;}</style></defs><title>logo</title><g id="Layer_2" data-name="Layer 2"><g id="Layer_1-2" data-name="Layer 1"><path class="cls-1" d="M203.41,115h27.18c10.87,0,20,1,27.18,4.8,8,4.17,14.79,12,14.79,24.4,0,11.25-5.44,19.34-13.15,23.89-7.08,4.17-16.18,5.69-29.58,5.69h-6.32v32.74h-20.1Zm27.43,42.47c8,0,12.51-.38,15.93-2.28a10.75,10.75,0,0,0,5.69-10c0-5.18-2.27-8.85-6.45-10.75-3.67-1.64-8.6-1.9-15.68-1.9h-6.83v24.9Z"/><path class="cls-1" d="M286.58,115h27.18c10.87,0,20,1,27.18,4.8,8,4.17,14.79,12,14.79,24.4,0,11.25-5.44,19.34-13.15,23.89-7.08,4.17-16.18,5.69-29.58,5.69h-6.32v32.74h-20.1ZM314,157.49c8,0,12.51-.38,15.93-2.28a10.75,10.75,0,0,0,5.69-10c0-5.18-2.28-8.85-6.45-10.75-3.67-1.64-8.6-1.9-15.68-1.9h-6.83v24.9Z"/><path class="cls-1" d="M368.84,115h56.51v17.57H388.94v17.95h31.35v16.69H388.94V189h37.8v17.57h-57.9Z"/><path class="cls-1" d="M441.68,115h28.7c10.87,0,21.11,1.52,28.44,6.07,6.7,4.17,11,11,11,21.49,0,11.76-6.45,21.36-18.58,25.28L517,206.54H493.89l-23.13-36.15h-9v36.15h-20.1Zm30.21,40.33c5.44,0,9.61-.63,12.64-2.15,3.41-1.77,5.18-4.8,5.18-9.23s-1.52-7.08-5.18-9c-3.16-1.64-8.09-2.4-15-2.4h-7.71v22.75Z"/><polygon class="cls-1" points="59.69 115.02 59.69 149.22 20.1 149.22 20.1 115.02 0 115.02 0 206.54 20.1 206.54 20.1 169.32 59.69 169.32 59.69 206.54 79.79 206.54 79.79 115.02 59.69 115.02"/><path class="cls-1" d="M93.82,135c0-26.67,20.6-47.15,47.78-47.15s47.78,20.48,47.78,47.15-20.6,47.15-47.78,47.15S93.82,161.69,93.82,135Zm75.47,0c0-16.18-11.88-28.95-27.68-28.95S113.92,118.84,113.92,135,125.8,164,141.6,164,169.28,151.2,169.28,135Z"/><path class="cls-2" d="M129.08,206.28a16,16,0,0,1,27.18,0h12.82c-3.75-10.78-13.89-18.21-26.41-18.21S120,195.5,116.27,206.28Z"/><path class="cls-1" d="M549.94,115.37h-8.3a52.07,52.07,0,0,1-52-52v-8.3a52.07,52.07,0,0,1,52-52h8.3a52.07,52.07,0,0,1,52,52v8.3A52.07,52.07,0,0,1,549.94,115.37Zm-8.3-110A49.71,49.71,0,0,0,492,55.06v8.3A49.71,49.71,0,0,0,541.64,113h8.3A49.71,49.71,0,0,0,599.6,63.36v-8.3A49.71,49.71,0,0,0,549.94,5.4Z"/><path class="cls-1" d="M549.94,118.41h-8.3a55.12,55.12,0,0,1-55.06-55.06v-8.3A55.12,55.12,0,0,1,541.64,0h8.3A55.12,55.12,0,0,1,605,55.06v8.3A55.12,55.12,0,0,1,549.94,118.41Zm-8.3-110A46.66,46.66,0,0,0,495,55.06v8.3A46.66,46.66,0,0,0,541.64,110h8.3a46.66,46.66,0,0,0,46.61-46.61v-8.3A46.66,46.66,0,0,0,549.94,8.45Z"/><path class="cls-1" d="M540.05,56.44h5.27c3.6,0,6.37-2.06,6.37-5.59,0-3.28-2.25-5.47-5.66-5.47s-5.59,2-5.92,5.08H530c.51-8.3,5.92-13.76,15.69-13.76,9,0,15.63,5.66,15.63,14.15,0,6.82-4.76,11.32-12.41,12.35l-.32,3.73H540.7Z"/><path class="cls-1" d="M538.77,76.31a5.63,5.63,0,1,1,5.59,5.4A5.48,5.48,0,0,1,538.77,76.31Z"/><path class="cls-1" d="M564,76.19a5.63,5.63,0,1,1,5.48,5.52A5.48,5.48,0,0,1,564,76.19Z"/><polygon class="cls-1" points="565.25 66.63 564.98 37.17 575.91 37.41 574.37 66.83 565.25 66.63"/><path class="cls-1" d="M527.58,76.19a5.63,5.63,0,1,0-5.48,5.52A5.48,5.48,0,0,0,527.58,76.19Z"/><polygon class="cls-1" points="526.34 66.63 526.61 37.17 515.68 37.41 517.21 66.83 526.34 66.63"/></g></g></svg>